<?xml version="1.0" encoding="UTF-8"?>
<svg xmlns="http://www.w3.org/2000/svg" viewBox="0 0 512 512" width="512" height="512" color="#101714">
  <title>TruePost — Stamp with paper plane (single color)</title>
  
  <defs>
    <mask id="stamp-perforations-mono">
      <rect width="512" height="512" fill="white"></rect>
      <g fill="black">
        <circle cx="56" cy="56" r="11.08"></circle><circle cx="86.77" cy="56" r="11.08"></circle><circle cx="117.54" cy="56" r="11.08"></circle><circle cx="148.31" cy="56" r="11.08"></circle><circle cx="179.08" cy="56" r="11.08"></circle><circle cx="209.85" cy="56" r="11.08"></circle><circle cx="240.62" cy="56" r="11.08"></circle><circle cx="271.38" cy="56" r="11.08"></circle><circle cx="302.15" cy="56" r="11.08"></circle><circle cx="332.92" cy="56" r="11.08"></circle><circle cx="363.69" cy="56" r="11.08"></circle><circle cx="394.46" cy="56" r="11.08"></circle><circle cx="425.23" cy="56" r="11.08"></circle><circle cx="456" cy="56" r="11.08"></circle>
        <circle cx="56" cy="456" r="11.08"></circle><circle cx="86.77" cy="456" r="11.08"></circle><circle cx="117.54" cy="456" r="11.08"></circle><circle cx="148.31" cy="456" r="11.08"></circle><circle cx="179.08" cy="456" r="11.08"></circle><circle cx="209.85" cy="456" r="11.08"></circle><circle cx="240.62" cy="456" r="11.08"></circle><circle cx="271.38" cy="456" r="11.08"></circle><circle cx="302.15" cy="456" r="11.08"></circle><circle cx="332.92" cy="456" r="11.08"></circle><circle cx="363.69" cy="456" r="11.08"></circle><circle cx="394.46" cy="456" r="11.08"></circle><circle cx="425.23" cy="456" r="11.08"></circle><circle cx="456" cy="456" r="11.08"></circle>
        <circle cx="56" cy="86.77" r="11.08"></circle><circle cx="56" cy="117.54" r="11.08"></circle><circle cx="56" cy="148.31" r="11.08"></circle><circle cx="56" cy="179.08" r="11.08"></circle><circle cx="56" cy="209.85" r="11.08"></circle><circle cx="56" cy="240.62" r="11.08"></circle><circle cx="56" cy="271.38" r="11.08"></circle><circle cx="56" cy="302.15" r="11.08"></circle><circle cx="56" cy="332.92" r="11.08"></circle><circle cx="56" cy="363.69" r="11.08"></circle><circle cx="56" cy="394.46" r="11.08"></circle><circle cx="56" cy="425.23" r="11.08"></circle>
        <circle cx="456" cy="86.77" r="11.08"></circle><circle cx="456" cy="117.54" r="11.08"></circle><circle cx="456" cy="148.31" r="11.08"></circle><circle cx="456" cy="179.08" r="11.08"></circle><circle cx="456" cy="209.85" r="11.08"></circle><circle cx="456" cy="240.62" r="11.08"></circle><circle cx="456" cy="271.38" r="11.08"></circle><circle cx="456" cy="302.15" r="11.08"></circle><circle cx="456" cy="332.92" r="11.08"></circle><circle cx="456" cy="363.69" r="11.08"></circle><circle cx="456" cy="394.46" r="11.08"></circle><circle cx="456" cy="425.23" r="11.08"></circle>
      </g>
    </mask>

    
    <mask id="cutout-mono">
      <rect width="512" height="512" fill="white"></rect>
      
      <rect x="84" y="84" width="344" height="344" rx="8" fill="black"></rect>
    </mask>
  </defs>

  <g fill="currentColor">
    
    <g mask="url(#cutout-mono)">
      <rect x="48" y="48" width="416" height="416" rx="12" mask="url(#stamp-perforations-mono)"></rect>
    </g>

    
    <g transform="translate(256, 256)">
      <path d="M -90 -10 L 100 -76 L 32 92 L 8 28 Z"></path>
      
      <path d="M -90 -10 L 8 28 L 32 92 Z" opacity="0.55"></path>
      <circle cx="-110" cy="6" r="5"></circle>
      <circle cx="-128" cy="22" r="4"></circle>
      <circle cx="-142" cy="36" r="3"></circle>
    </g>
  </g>
</svg>